<svg id="Layer_1" data-name="Layer 1" xmlns="http://www.w3.org/2000/svg" viewBox="0 0 2111.53 875.96"><defs><style>.cls-1,.cls-3,.cls-4{fill:#ee5c43;}.cls-2,.cls-3,.cls-4,.cls-5,.cls-6,.cls-7,.cls-8,.cls-9{isolation:isolate;}.cls-3,.cls-4,.cls-5,.cls-6,.cls-7{font-size:288.69px;font-family:Arial-BoldMT, Arial;font-weight:700;}.cls-4{letter-spacing:-0.01em;}.cls-5{letter-spacing:-0.04em;}.cls-10,.cls-6,.cls-7,.cls-8,.cls-9{fill:#333;}.cls-6{letter-spacing:-0.07em;}.cls-8,.cls-9{font-size:63.12px;font-family:Montserrat-Regular, Montserrat;}.cls-8{letter-spacing:0.4em;}.cls-9{letter-spacing:0.39em;}</style></defs><title>brand</title><g id="Objects"><path class="cls-1" d="M2103.43,778.33a34.92,34.92,0,0,1-34.77-32.3,14.6,14.6,0,0,0-14.5-13.46H1422.38A14.61,14.61,0,0,0,1407.87,746a34.9,34.9,0,1,1-69.61-5.22,84.69,84.69,0,0,1,84.12-78h631.78a84.71,84.71,0,0,1,84.12,78,34.91,34.91,0,0,1-32.21,37.42h0A25.92,25.92,0,0,1,2103.43,778.33Z" transform="translate(-585.54 -562)"/><g class="cls-2"><text class="cls-3" transform="translate(333.37 484.16)">E</text><text class="cls-4" transform="translate(474.25 484.16)">c</text><text class="cls-3" transform="translate(601.85 484.16)">o</text><text class="cls-5" transform="translate(760.33 484.16)"> </text><text class="cls-6" transform="translate(809.7 484.16)">T</text><text class="cls-7" transform="translate(932.68 484.16)">oolZ</text></g><g class="cls-2"><text class="cls-8" transform="translate(0 577.38)">it is </text><text class="cls-8" transform="translate(275.02 577.38)">m</text><text class="cls-8" transform="translate(367.36 577.38)">o</text><text class="cls-9" transform="translate(432.19 577.38)">r</text><text class="cls-8" transform="translate(481.93 577.38)">e than just sales.</text></g><circle class="cls-10" cx="1050.72" cy="816.44" r="59.52"/><circle class="cls-10" cx="1297.07" cy="816.44" r="59.52"/><path class="cls-1" d="M2561.62,562h-65.28A135.61,135.61,0,0,0,2371,646.22h84.82a65,65,0,0,1,40.49-14.37h65.28a65.65,65.65,0,1,1,1.62,131.29h-66.9a65,65,0,0,1-40.49-14.37H2371A135.62,135.62,0,0,0,2496.34,833h65.28c74.69,0,135.45-60.77,135.45-135.46S2636.31,562,2561.62,562Z" transform="translate(-585.54 -562)"/><path class="cls-1" d="M2101.23,1260.14H1373.06a34.91,34.91,0,0,1,0-69.81h703.36L2251.83,686a34.9,34.9,0,0,1,33-23.43H2529a34.9,34.9,0,0,1,.05,69.8H2309.61L2134.2,1236.7A34.91,34.91,0,0,1,2101.23,1260.14Z" transform="translate(-585.54 -562)"/></g></svg>