<svg xmlns="http://www.w3.org/2000/svg" viewBox="0 0 3200 2000"><defs><style>.cls-1{fill:#e6e6e6;}.cls-2,.cls-3{fill:#ee5c43;}.cls-3{font-size:288.69px;font-family:Oswald-Bold, Oswald Bold;font-weight:700;}.cls-4{letter-spacing:0em;}.cls-5{letter-spacing:-0.01em;}.cls-6{letter-spacing:-0.04em;fill:#000;}.cls-12,.cls-7,.cls-8,.cls-9{fill:#333;}.cls-7{letter-spacing:-0.07em;}.cls-8{letter-spacing:0em;}.cls-9{font-size:63.12px;font-family:Montserrat-Regular, Montserrat;letter-spacing:0.4em;}.cls-10{letter-spacing:0.4em;}.cls-11{letter-spacing:0.39em;}</style></defs><title>brand</title><g id="Background"><rect class="cls-1" width="3200" height="2000"/></g><g id="Objects"><path class="cls-2" d="M2103.43,778.33a34.92,34.92,0,0,1-34.77-32.3,14.6,14.6,0,0,0-14.5-13.46H1422.38A14.61,14.61,0,0,0,1407.87,746a34.9,34.9,0,1,1-69.61-5.22,84.7,84.7,0,0,1,84.12-78h631.78a84.72,84.72,0,0,1,84.12,78,34.91,34.91,0,0,1-32.21,37.42C2105.19,778.29,2104.31,778.33,2103.43,778.33Z" transform="translate(0)"/><text class="cls-3" transform="translate(918.91 1046.16)"><tspan class="cls-4">E</tspan><tspan class="cls-5" x="140.88" y="0">c</tspan><tspan x="268.48" y="0">o</tspan><tspan class="cls-6" x="426.96" y="0"> </tspan><tspan class="cls-7" x="476.33" y="0">T</tspan><tspan class="cls-8" x="599.31" y="0">oolZ</tspan></text><text class="cls-9" transform="translate(585.54 1139.38)">it is <tspan class="cls-10" x="275.02" y="0">m</tspan><tspan x="367.36" y="0">o</tspan><tspan class="cls-11" x="432.19" y="0">r</tspan><tspan x="481.93" y="0">e than just sales.</tspan></text><circle class="cls-12" cx="1636.26" cy="1378.44" r="59.52"/><circle class="cls-12" cx="1882.61" cy="1378.44" r="59.52"/><path class="cls-2" d="M2561.62,562h-65.28A135.61,135.61,0,0,0,2371,646.22h84.82a65,65,0,0,1,40.49-14.37h65.28a65.65,65.65,0,1,1,0,131.29h-65.28a65,65,0,0,1-40.49-14.37H2371A135.61,135.61,0,0,0,2496.34,833h65.28c74.69,0,135.45-60.77,135.45-135.46S2636.31,562,2561.62,562Z" transform="translate(0)"/><path class="cls-2" d="M2101.23,1260.14H1373.06a34.91,34.91,0,0,1,0-69.81h703.36L2251.83,686a34.9,34.9,0,0,1,33-23.43H2529a34.9,34.9,0,1,1,0,69.8H2309.61L2134.2,1236.7A34.91,34.91,0,0,1,2101.23,1260.14Z" transform="translate(0)"/></g></svg>